<?xml version="1.0" encoding="UTF-8"?>
<svg id="Layer_1" fill="red" data-name="Layer 1" xmlns="http://www.w3.org/2000/svg" viewBox="0 0 662.35 273.55">
  <defs>
    <style>
      .cls-1 {
        stroke-width: 0px;
      }
    </style>
  </defs>
  <path class="cls-1" d="M657.07,131.09l-20.93,14.82c1.73,12.6,1.67,24.76-.17,36.16l-.13.78-1.87-.51.03-.57c1.01-19.78-4.01-45.25-5.15-50.67l-20.93,14.82c1.75,12.74,1.67,25.02-.23,36.52l-.13.77-1.9-.52.03-.57c1.08-19.83-3.99-45.54-5.13-51l-20.93,14.82c.78,5.73,1.15,11.44,1.1,16.99v.22s-1.69,2.37-1.69,2.37l-2.03-8.14c-1.69-6.4-5.4-10.98-11.02-13.59-19.72-9.21-56.98,8.09-57.36,8.26-73.76,33.69-90.32,2.96-90.32-3.46v-.2l.04-1.09.48-.04c12.5-.76,28.21-3.12,38.88-14.69,4.84-5.24,7.34-12.12,9.75-18.77l.32-.87c3.91-10.73,7.8-22.27,9.79-33.97,2.61-15.31-4.23-28.18-12.37-41.01-.63,1.82-2.08,5.39-5.13,12.66-1.42,3.38-2.65,6.31-2.89,7.06-1.72,5.44-3.24,10.36-4.41,15.46-.08.35-.22.82-.38,1.34-.42,1.4-1.19,3.99-.66,4.83l1.37,2.12c3.09,4.76,11.22,22.57,11.22,22.57l-1.61.82c-8.49,3.87-43.87,6.34-43.87,6.34-.63-11.28-2.49-28.11-4.11-38.04-4.15-25.46-11.45-50.62-18-72.96-.49.97-1.11,2.25-1.52,3.09-.43.89-.71,1.46-.92,1.82-2.16,5.39-3.96,10.89-5.59,16.02-.46,1.45-1.14,3.21-1.86,5.07-2.31,5.96-5.19,13.38-3.82,18.06,5.77,19.68,12.5,46.55,16.68,67.22,0,0-35.73,5-46.9,7.95-13.01,3.44-31.41,8.15-37.24,21.65-5.83,13.49-9.08,25.71-11.3,36.8-1.6,8-.59,14.83,2.9,19.75,3.22,4.54,8.41,7.33,15.41,8.3,10.7,1.48,72.3,1.02,83.12,1.02,1.73-2.56,4.17-8.27,6.36-21.02l1-5.83,1.83,26.89c27.18,2.84,85-25.23,85.58-25.51,25.89-9.61,44.92-10.06,56.63-1.37,11,8.16,11.93,21.9,11.94,26.14l29.62-16.81.85,16.79,28.25-17.06-.02,17.05,34.16-20.63c1.94-20.2-3.67-48.67-4.88-54.45ZM397.15,170.77s-65.41,3.17-75.82,0l1.21-5.86,1.31-.69c20.41-11.88,75.6-16.81,75.6-16.81,0,0,2.23,11.69-2.29,23.36Z"/>
  <path class="cls-1" d="M271.8,145.91c1.73,12.6,1.67,24.76-.17,36.16l-.13.78-1.87-.51.03-.57c1.01-19.78-4.02-45.25-5.15-50.67l-20.93,14.82c1.75,12.74,1.67,25.02-.23,36.52l-.13.77-1.9-.52.03-.57c1.08-19.83-3.99-45.54-5.13-51l-20.93,14.82c.78,5.73,1.15,11.44,1.1,16.99v.23s-1.7,2.34-1.7,2.34l-2.03-8.12c-1.7-6.4-5.4-10.98-11.02-13.59-19.72-9.21-56.98,8.08-57.36,8.26-10.88,4.71-21.27,8.11-30.9,10.12l-.26.05.67-2.49.77-2.92c.49-1.88.98-3.73,1.46-5.52,6.42-23.81,2.44-45.91-1.78-69.3-.54-3.01-1.09-6.04-1.62-9.09-4.76-27.54-11.09-50.75-19.89-72.9-.59,1.17-1.44,2.96-1.89,3.89-.28.58-.47,1-.63,1.28-2.16,5.39-3.96,10.88-5.58,16.01-1.63,5.14-3.32,10.68-4.67,16.39-.1.43-.24.92-.39,1.45-.48,1.67-1.15,3.96-.63,5.24,8.61,21.4,14.48,41.04,17.96,60.06.94,5.14,2.04,10.47,3.11,15.62,2.78,13.47,5.66,29.22,6.42,42.9.19.29-9.51,7.37-14.98,9.34-10.06,3.63-21.99,5.15-34.55,4.25-9.66-.69-23.28-3.4-33.27-12.39-1.05-.95-2.09-2.02-3.26-3.38l.68-3.18.14-.39c1.46-3.98,2.75-8.9,3.59-12.16.39-1.49.7-2.67.91-3.33,1.63-5.14,3.32-10.68,4.67-16.39.18-.75.84-4.45,1.01-6.06-1.13.25-2.38.47-3.68.71-4.75.84-10.14,1.8-12.47,4.72-4.27,5.35-10.93,30.01-10.94,30.05-1.73,6.4-4.8,12.69-4.24,19.49,1.35,16.21,14.57,28.46,29.52,32.98.18.05.36.11.55.16,10.62,3.07,22.34,3.49,33.3,2.3,16.87-1.84,31.1-13.17,40.95-26.51,2.27-3.08,4.43-6.44,5.64-10.11v19.88c14.75-5.84,26.02-11.34,26.14-11.39,25.92-9.63,44.97-10.07,56.68-1.33,10.87,8.11,11.85,21.88,11.88,26.11l29.63-16.81.85,16.79,28.25-17.06-.02,17.05,34.15-20.63c1.94-20.19-3.67-48.67-4.87-54.45l-20.93,14.82Z"/>
</svg>